REM MD5 829d37fea89a8d310ba925e248f15f14
FILE "Double Impact - Double Life (Europe) (Games) (Demo).bin" BINARY
  TRACK 01 MODE2/2352
    INDEX 01 00:00:00
  TRACK 02 AUDIO
    INDEX 00 27:13:32
    INDEX 01 27:15:32
  TRACK 03 AUDIO
    INDEX 00 30:55:40
    INDEX 01 30:57:40
REM LEADOUT 33:58:72
